<?xml version="1.0" standalone="no"?><?xml-stylesheet type="text/css" href="https://wps.processon.com/themes/default/wps/mind/icons/icons.css" ?><!DOCTYPE svg PUBLIC "-//W3C//DTD SVG 1.1//EN" "http://www.w3.org/Graphics/SVG/1.1/DTD/svg11.dtd"><svg id="SvgjsSvg1000" xmlns="http://www.w3.org/2000/svg" version="1.1" xmlns:xlink="http://www.w3.org/1999/xlink" xmlns:svgjs="http://svgjs.com/svgjs" width="418" height="455.0104064941406"><rect fill="url(#pattern_mark)" transform="translate(-219,-119.65625)" width="1397" height="1196" id="rect_mark" pointer-events="none"></rect><defs id="SvgjsDefs1001"><pattern id="SvgjsPattern1009" x="0" y="0" width="57" height="76" patternUnits="userSpaceOnUse"><image id="SvgjsImage1010" xlink:href="https://wps.processon.com/assets/images/designer/network_azure/SQLDatabase_Generic.svg" width="57" height="76" preserveAspectRatio="none" crossOrigin="anonymous" x="0" y="0"></image></pattern><pattern id="SvgjsPattern1015" x="0" y="0" width="57" height="76" patternUnits="userSpaceOnUse"><image id="SvgjsImage1016" xlink:href="https://wps.processon.com/assets/images/designer/network_azure/SQLDatabase_Generic.svg" width="57" height="76" preserveAspectRatio="none" crossOrigin="anonymous" x="0" y="0"></image></pattern><pattern id="SvgjsPattern1021" x="0" y="0" width="57" height="76" patternUnits="userSpaceOnUse"><image id="SvgjsImage1022" xlink:href="https://wps.processon.com/assets/images/designer/network_azure/SQLDatabase_Generic.svg" width="57" height="76" preserveAspectRatio="none" crossOrigin="anonymous" x="0" y="0"></image></pattern><pattern patternUnits="userSpaceOnUse" id="pattern_mark" width="300" height="300"><text x="-50" y="150" fill="rgba(229,229,229,0.8)" font-size="18" transform="rotate(-45, 150, 150)"></text></pattern></defs><g id="SvgjsG1007" transform="translate(34.5,86.01040649414062)"><path id="SvgjsPath1008" d="M0 0L57 0L57 76L0 76Z " stroke="none" fill="url(#SvgjsPattern1009)" opacity="1"></path><g id="SvgjsG1011"><text id="SvgjsText1012" font-family="微软雅黑" text-anchor="middle" font-size="13px" width="97px" fill="#323232" font-weight="400" align="middle" lineHeight="125%" font-style="" opacity="1" y="80.375" transform="rotate(0)"></text></g></g><g id="SvgjsG1013" transform="translate(131.5,86.01040649414062)"><path id="SvgjsPath1014" d="M0 0L57 0L57 76L0 76Z " stroke="none" fill="url(#SvgjsPattern1015)" opacity="1"></path><g id="SvgjsG1017"><text id="SvgjsText1018" font-family="微软雅黑" text-anchor="middle" font-size="13px" width="97px" fill="#323232" font-weight="400" align="middle" lineHeight="125%" font-style="" opacity="1" y="80.375" transform="rotate(0)"></text></g></g><g id="SvgjsG1019" transform="translate(228.5,86.01040649414062)"><path id="SvgjsPath1020" d="M0 0L57 0L57 76L0 76Z " stroke="none" fill="url(#SvgjsPattern1021)" opacity="1"></path><g id="SvgjsG1023"><text id="SvgjsText1024" font-family="微软雅黑" text-anchor="middle" font-size="13px" width="97px" fill="#323232" font-weight="400" align="middle" lineHeight="125%" font-style="" opacity="1" y="80.375" transform="rotate(0)"></text></g></g><g id="SvgjsG1025" transform="translate(29,25.010406494140625)"><path id="SvgjsPath1026" d="M0 4Q0 0 4 0L262 0Q266 0 266 4L266 28Q266 32 262 32L4 32Q0 32 0 28Z " stroke="rgba(50,50,50,1)" stroke-width="2" fill-opacity="1" fill="#ffffff"></path><g id="SvgjsG1027"><text id="SvgjsText1028" font-family="微软雅黑" text-anchor="middle" font-size="13px" width="246px" fill="#323232" font-weight="400" align="middle" lineHeight="125%" font-style="" opacity="1" y="5.375" transform="rotate(0)"><tspan id="SvgjsTspan1029" dy="16" x="133"><tspan id="SvgjsTspan1030" style="text-decoration:;">迁移器</tspan></tspan></text></g></g><g id="SvgjsG1031" transform="translate(25,188.01040649414062)"><path id="SvgjsPath1032" d="M0 4Q0 0 4 0L266 0Q270 0 270 4L270 27Q270 31 266 31L4 31Q0 31 0 27Z " stroke="rgba(50,50,50,1)" stroke-width="2" fill-opacity="1" fill="#ffffff"></path><g id="SvgjsG1033"><text id="SvgjsText1034" font-family="微软雅黑" text-anchor="middle" font-size="13px" width="250px" fill="#323232" font-weight="400" align="middle" lineHeight="125%" font-style="" opacity="1" y="4.875" transform="rotate(0)"><tspan id="SvgjsTspan1035" dy="16" x="135"><tspan id="SvgjsTspan1036" style="text-decoration:;">分表路由</tspan></tspan></text></g></g><g id="SvgjsG1037" transform="translate(25,317.0104064941406)"><path id="SvgjsPath1038" d="M0 4Q0 0 4 0L266 0Q270 0 270 4L270 58Q270 62 266 62L4 62Q0 62 0 58Z " stroke="rgba(50,50,50,1)" stroke-width="2" fill-opacity="1" fill="#ffffff"></path><g id="SvgjsG1039"><text id="SvgjsText1040" font-family="微软雅黑" text-anchor="middle" font-size="13px" width="250px" fill="#323232" font-weight="400" align="middle" lineHeight="125%" font-style="" opacity="1" y="20.375" transform="rotate(0)"><tspan id="SvgjsTspan1041" dy="16" x="135"><tspan id="SvgjsTspan1042" style="text-decoration:;">虚拟数据源</tspan></tspan></text></g></g><g id="SvgjsG1043" transform="translate(25,229.01040649414062)"><path id="SvgjsPath1044" d="M0 4Q0 0 4 0L266 0Q270 0 270 4L270 74Q270 78 266 78L4 78Q0 78 0 74Z " stroke="rgba(50,50,50,1)" stroke-width="2" fill-opacity="1" fill="#ffffff"></path><g id="SvgjsG1045"><text id="SvgjsText1046" font-family="微软雅黑" text-anchor="middle" font-size="13px" width="250px" fill="#323232" font-weight="400" align="middle" lineHeight="125%" font-style="" opacity="1" y="28.375" transform="rotate(0)"></text></g></g><g id="SvgjsG1047" transform="translate(38.5,243.01040649414062)"><path id="SvgjsPath1048" d="M0 4Q0 0 4 0L130.5 0Q134.5 0 134.5 4L134.5 46Q134.5 50 130.5 50L4 50Q0 50 0 46Z " stroke="rgba(50,50,50,1)" stroke-width="2" fill-opacity="1" fill="#ffffff"></path><g id="SvgjsG1049"><text id="SvgjsText1050" font-family="微软雅黑" text-anchor="middle" font-size="13px" width="115px" fill="#323232" font-weight="400" align="middle" lineHeight="125%" font-style="" opacity="1" y="14.375" transform="rotate(0)"><tspan id="SvgjsTspan1051" dy="16" x="67.5"><tspan id="SvgjsTspan1052" style="text-decoration:;">虚拟实体</tspan></tspan></text></g></g><g id="SvgjsG1053" transform="translate(188.5,243.01040649414062)"><path id="SvgjsPath1054" d="M0 4Q0 0 4 0L86 0Q90 0 90 4L90 46Q90 50 86 50L4 50Q0 50 0 46Z " stroke="rgba(50,50,50,1)" stroke-width="2" fill-opacity="1" fill="#ffffff"></path><g id="SvgjsG1055"><text id="SvgjsText1056" font-family="微软雅黑" text-anchor="middle" font-size="13px" width="70px" fill="#323232" font-weight="400" align="middle" lineHeight="125%" font-style="" opacity="1" y="14.375" transform="rotate(0)"><tspan id="SvgjsTspan1057" dy="16" x="45"><tspan id="SvgjsTspan1058" style="text-decoration:;">实体</tspan></tspan></text></g></g><g id="SvgjsG1059" transform="translate(25,389.0104064941406)"><path id="SvgjsPath1060" d="M0 4Q0 0 4 0L364 0Q368 0 368 4L368 37Q368 41 364 41L4 41Q0 41 0 37Z " stroke="rgba(50,50,50,1)" stroke-width="2" fill-opacity="1" fill="#ffffff"></path><g id="SvgjsG1061"><text id="SvgjsText1062" font-family="微软雅黑" text-anchor="middle" font-size="13px" width="348px" fill="#323232" font-weight="400" align="middle" lineHeight="125%" font-style="" opacity="1" y="9.875" transform="rotate(0)"><tspan id="SvgjsTspan1063" dy="16" x="184"><tspan id="SvgjsTspan1064" style="text-decoration:;">DAL</tspan></tspan></text></g></g><g id="SvgjsG1065" transform="translate(302,188.01040649414062)"><path id="SvgjsPath1066" d="M0 4Q0 0 4 0L87 0Q91 0 91 4L91 187Q91 191 87 191L4 191Q0 191 0 187Z " stroke="rgba(50,50,50,1)" stroke-width="2" fill-opacity="1" fill="#ffffff"></path><g id="SvgjsG1067"><text id="SvgjsText1068" font-family="微软雅黑" text-anchor="middle" font-size="13px" width="71px" fill="#323232" font-weight="400" align="middle" lineHeight="125%" font-style="" opacity="1" y="84.875" transform="rotate(0)"><tspan id="SvgjsTspan1069" dy="16" x="45.5"><tspan id="SvgjsTspan1070" style="text-decoration:;">映射器</tspan></tspan></text></g></g><g id="SvgjsG1071" transform="translate(302,25.010406494140625)"><path id="SvgjsPath1072" d="M0 4Q0 0 4 0L87 0Q91 0 91 4L91 150Q91 154 87 154L4 154Q0 154 0 150Z " stroke="rgba(50,50,50,1)" stroke-width="2" fill-opacity="1" fill="#ffffff"></path><g id="SvgjsG1073"><text id="SvgjsText1074" font-family="微软雅黑" text-anchor="middle" font-size="13px" width="71px" fill="#323232" font-weight="400" align="middle" lineHeight="125%" font-style="" opacity="1" y="66.375" transform="rotate(0)"><tspan id="SvgjsTspan1075" dy="16" x="45.5"><tspan id="SvgjsTspan1076" style="text-decoration:;">连接器</tspan></tspan></text></g></g></svg>